<?xml version="1.0" encoding="UTF-8"?>
<svg id="Layer_2" data-name="Layer 2" xmlns="http://www.w3.org/2000/svg" viewBox="0 0 324.85 359.08">
  <defs>
    <style>
      .cls-1 {
        fill: #fff;
      }

      .cls-2 {
        fill: #fbbf24;
      }
    </style>
  </defs>
  <g id="Layer_1-2" data-name="Layer 1">
    <g>
      <path class="cls-2" d="M324.74,189.68c0,25.83-.12,51.65,.11,77.48,.05,5.42-1.67,8.48-6.53,11.22-45.83,25.82-91.47,51.97-137.2,77.97-10.84,6.16-18.31,1.67-18.31-10.82,0-47.89,.1-95.78-.13-143.67-.03-5.57,1.51-9.37,6.6-11.1,17.05-5.78,21.38-17.31,20.66-34.98-1.54-38.05-.49-76.21-.45-114.32,.01-11.46,7.05-15.48,17.01-9.59,37.08,21.96,74.07,44.08,111.19,65.98,5.13,3.03,7.2,6.9,7.15,12.85-.21,26.33-.09,52.65-.08,78.98Zm-147.48,152.06c3.93-1.94,6.18-2.9,8.28-4.1,38.98-22.17,77.87-44.52,117.01-66.4,5.92-3.31,7.9-6.96,7.85-13.56-.3-39.88-.16-79.76-.17-119.64,0-2.88,0-5.76,0-9.99-4.17,1.8-6.97,2.72-9.49,4.15-39,22.17-77.9,44.5-116.99,66.5-5.15,2.9-6.6,6.31-6.57,11.93,.2,40.38,.09,80.77,.08,121.15,0,2.71,0,5.42,0,9.96ZM203.97,55.39v115.49c11.24-6.36,21.07-11.93,31.97-18.1-8.85-7.68-23.88-10.42-16.11-26.97,8.34,4.92,16.47,9.74,24.62,14.51,7.64,4.47,11.52,3.51,17.67-4.62-12.46-7.46-24.87-14.9-37.3-22.31-7.61-4.54-9.09-10.04-4.63-19.09,3.03,1.73,6.06,3.41,9.04,5.18,14.42,8.57,28.78,17.24,43.28,25.68,2.24,1.31,5.73,2.97,7.53,2.11,7.29-3.45,14.14-7.83,22.9-12.87-33.67-20.07-65.49-39.04-98.99-59.01Z"/>
      <path class="cls-2" d="M.11,170.44c0-26.08,.14-52.15-.11-78.23-.05-5.65,1.49-8.91,6.72-11.84C52.79,54.48,98.68,28.26,144.53,1.97c4.19-2.41,7.48-2.78,11.73-.17,4.19,2.57,5.3,5.51,5.28,10.41-.23,48.39-.23,96.78,.07,145.17,.04,5.62-1.34,9.42-6.5,11.15-16.44,5.49-20.96,16.36-20.25,33.62,1.54,37.8,.46,75.7,.52,113.56,0,5.39-.11,9.95-5.91,13.32-5.63,3.27-8.96,.16-12.91-2.18-36.63-21.72-73.19-43.55-109.88-65.17C1.74,258.76-.03,255.07,.02,249.42c.22-26.32,.1-52.65,.09-78.98Zm14.37,61.32c3.92-2.03,6.58-3.29,9.13-4.74,38.73-22.05,77.38-44.24,116.24-66.07,5.57-3.13,7.59-6.72,7.55-13.03-.24-40.34-.09-80.69-.14-121.03,0-2.6-.57-5.2-1.01-8.97-3.29,1.7-5.47,2.73-7.57,3.92C99.5,44.1,60.38,66.47,21.08,88.54c-5.32,2.99-7.32,6.52-7.29,12.51,.19,41.1,.09,82.19,.11,123.29,0,1.93,.29,3.86,.58,7.43Zm90.8,33.74c-3.19-1.73-6.25-3.26-9.18-5-14.87-8.79-29.67-17.69-44.58-26.4-2.06-1.2-5.23-2.81-6.86-2.04-7.5,3.53-14.64,7.84-23.55,12.77,34.06,20.29,66.08,39.36,98.78,58.84v-115.12c-11.16,6.44-20.85,12.03-31.63,18.25,9.62,7.64,24.24,10.56,16.52,26.95-8.21-4.86-16.4-9.61-24.5-14.51-7.44-4.5-11.62-3.72-18.1,4.23,12.02,7.25,23.98,14.42,35.88,21.66,9.52,5.79,10.13,7.49,7.21,20.38Z"/>
      <path class="cls-1" d="M177.26,341.74c0-4.54,0-7.25,0-9.96,.01-40.38,.12-80.77-.08-121.15-.03-5.62,1.42-9.03,6.57-11.93,39.09-22,77.99-44.33,116.99-66.5,2.52-1.43,5.32-2.35,9.49-4.15,0,4.22,0,7.1,0,9.99,.01,39.88-.12,79.76,.17,119.64,.05,6.6-1.93,10.25-7.85,13.56-39.14,21.89-78.03,44.23-117.01,66.4-2.11,1.2-4.35,2.16-8.28,4.1Z"/>
      <path class="cls-1" d="M203.97,55.39c33.5,19.97,65.31,38.94,98.99,59.01-8.76,5.04-15.62,9.41-22.9,12.87-1.8,.85-5.29-.81-7.53-2.11-14.5-8.44-28.86-17.11-43.28-25.68-2.98-1.77-6.02-3.45-9.04-5.18-4.46,9.05-2.99,14.55,4.63,19.09,12.43,7.41,24.84,14.85,37.3,22.31-6.15,8.13-10.03,9.09-17.67,4.62-8.15-4.77-16.28-9.59-24.62-14.51-7.76,16.56,7.26,19.29,16.11,26.97-10.9,6.17-20.73,11.74-31.97,18.1V55.39Z"/>
      <path class="cls-1" d="M14.49,231.76c-.29-3.57-.58-5.5-.58-7.43-.02-41.1,.08-82.19-.11-123.29-.03-5.99,1.97-9.52,7.29-12.51,39.3-22.06,78.42-44.43,117.6-66.69,2.1-1.19,4.28-2.22,7.57-3.92,.44,3.77,1.01,6.37,1.01,8.97,.05,40.34-.1,80.69,.14,121.03,.04,6.31-1.98,9.9-7.55,13.03-38.85,21.83-77.51,44.02-116.24,66.07-2.55,1.45-5.21,2.71-9.13,4.74Zm18.81-85.19c.78,.63,1.55,1.25,2.33,1.88,5.39-4.45,11.55-8.27,15.86-13.6,2.35-2.91,3.48-9.46,1.77-12.4-2.79-4.79-1.45-8.03-.35-12.41,.65-2.59-.62-7.2-2.63-8.6-3.61-2.52-16.76,5.52-16.87,10.07-.29,11.68-.1,23.38-.1,35.06Zm14.59,41.06c6.45-2.42,8.83-26.43,4.92-40.35-7.11,.98-5.42,6.47-5.58,10.89-.16,4.35,.44,9.08-6.42,9.74-.54-4.64-1.02-8.73-1.52-13-6.42,3-8.91,27.46-4.14,42.63,1.95-2.84,4.05-4.64,4.45-6.77,.63-3.38-.51-7.12,.29-10.42,.62-2.59,3.04-4.75,4.65-7.1,.67,.4,1.35,.81,2.02,1.21,.42,4.14,.84,8.28,1.33,13.16Zm33.23-84.49c-.58-.17-1.16-.34-1.73-.51,0-2,.31-4.07-.07-5.99-.69-3.44-1.79-6.8-2.72-10.19-3.84,1.29-8.16,1.89-11.38,4.09-2.63,1.81-5.24,5.39-5.6,8.45-1.02,8.64-1.16,17.42-1.06,26.14,.05,4.84,3.4,6.74,7.8,4.74,3.1-1.41,7.12-3.22,8.3-5.91,2.9-6.61,4.4-13.84,6.46-20.82Zm1.33-5.07c.62,.2,1.24,.4,1.86,.6,0,1.5-.3,3.08,.06,4.49,1.08,4.23,2.41,8.4,3.65,12.59,4.56-2.6,9.58-4.66,13.51-8.01,2.13-1.81,3.13-5.76,3.34-8.83,.49-7.22,.26-14.5,.2-21.75-.05-5.72-3.62-6.94-8.1-5.18-2.9,1.14-6.53,3.03-7.66,5.56-2.93,6.56-4.65,13.66-6.86,20.54Zm43.59-.23c2.24-3.74,4.9-6.39,4.36-7.57-5.15-11.3-9.67-22.43-.01-34.59-1.31-.33-2.63-.65-3.94-.98-2.96,5.31-5.93,10.61-9.26,16.59-.89-3.34-1.5-5.64-2.13-8.03-5.6,2.7-7.68,27.73-3.64,40.68,9.64-3.94,1-14.89,8.15-20.36,1.85,4.08,3.55,7.83,6.47,14.26Zm-22.47,19.64c-10.54,6.82-4.22,19.58-11.21,28.37-1.58-6.77-2.9-12.45-4.76-20.42-2.64,3.24-5.61,5.34-5.32,6.79,2.11,10.71,4.87,21.28,7.45,31.98,7.25-2.64,14.98-29.56,13.84-46.73Zm17.42,23.65c-7.4-10.11,6.33-11.91,6.94-19.55-3.17,.57-5.43,.97-7.67,1.37-2.33-5.48-.85-8.87,3.87-11.61,2.63-1.53,4.57-4.24,6.82-6.42-17.68,4.32-18.29,5.14-18.33,21.65,0,3.5-.02,6.99-.03,10.49,0,4.52,0,9.05,0,15.46,8.12-5.07,15.31-6.86,19.61-12.66-.45-.79-.9-1.58-1.35-2.36-3.31,1.22-6.62,2.44-9.86,3.63Zm-54.99,36.65c6.72-3.46,8.49-31.43,3.37-42.81-6.17,14.77-1.92,28.34-3.37,42.81Z"/>
      <path class="cls-1" d="M105.28,265.5c2.91-12.88,2.31-14.59-7.21-20.38-11.91-7.24-23.86-14.41-35.88-21.66,6.48-7.95,10.66-8.73,18.1-4.23,8.1,4.9,16.28,9.65,24.5,14.51,7.72-16.39-6.9-19.31-16.52-26.95,10.77-6.22,20.47-11.81,31.63-18.25v115.12c-32.7-19.48-64.73-38.55-98.78-58.84,8.91-4.94,16.05-9.24,23.55-12.77,1.63-.77,4.8,.84,6.86,2.04,14.92,8.71,29.72,17.61,44.58,26.4,2.94,1.74,5.99,3.27,9.18,5Z"/>
      <path d="M33.29,146.57c0-11.69-.19-23.38,.1-35.06,.11-4.55,13.26-12.59,16.87-10.07,2.01,1.4,3.28,6.01,2.63,8.6-1.1,4.39-2.43,7.62,.35,12.41,1.71,2.94,.59,9.5-1.77,12.4-4.31,5.32-10.47,9.15-15.86,13.6-.78-.63-1.55-1.25-2.33-1.88Zm6.24-9.93c1.55,.47,3.1,.94,4.65,1.42,1.2-3.74,2.41-7.47,3.61-11.21-1.62-.48-4.63-1.48-4.67-1.37-1.37,3.65-2.46,7.42-3.59,11.16Zm-.04-18.15c1.39,.37,2.78,.73,4.17,1.1,.9-3.13,1.81-6.25,2.71-9.38-1.46-.37-4.15-1.17-4.19-1.05-1.07,3.05-1.85,6.2-2.69,9.33Z"/>
      <path d="M47.89,187.63c-.49-4.88-.91-9.02-1.33-13.16-.67-.4-1.35-.81-2.02-1.21-1.62,2.35-4.03,4.51-4.65,7.1-.79,3.3,.34,7.05-.29,10.42-.4,2.13-2.5,3.93-4.45,6.77-4.77-15.17-2.28-39.64,4.14-42.63,.5,4.27,.98,8.35,1.52,13,6.86-.66,6.27-5.4,6.42-9.74,.16-4.42-1.53-9.91,5.58-10.89,3.92,13.92,1.53,37.93-4.92,40.35Z"/>
      <path d="M81.12,103.14c-2.06,6.98-3.56,14.21-6.46,20.82-1.18,2.7-5.21,4.51-8.3,5.91-4.4,2-7.74,.11-7.8-4.74-.1-8.72,.05-17.5,1.06-26.14,.36-3.06,2.97-6.64,5.6-8.45,3.21-2.21,7.53-2.8,11.38-4.09,.93,3.39,2.04,6.75,2.72,10.19,.38,1.93,.07,3.99,.07,5.99,.58,.17,1.16,.34,1.73,.51Zm-9.69-9.49c-6.99,2.74-9.12,18.51-4.45,29.04,6.22-2.82,8.11-14.58,4.45-29.04Z"/>
      <path d="M82.45,98.07c2.21-6.88,3.93-13.98,6.86-20.54,1.13-2.53,4.76-4.42,7.66-5.56,4.48-1.76,8.05-.54,8.1,5.18,.06,7.25,.29,14.53-.2,21.75-.21,3.07-1.22,7.02-3.34,8.83-3.93,3.35-8.95,5.41-13.51,8.01-1.23-4.19-2.57-8.36-3.65-12.59-.36-1.41-.06-2.99-.06-4.49-.62-.2-1.24-.4-1.86-.6Zm9.83,10.34c6.65-3.37,8.7-20.36,3.97-29.39-6.29,3.36-8.33,17.45-3.97,29.39Z"/>
      <path d="M126.04,97.84c-2.92-6.43-4.62-10.18-6.47-14.26-7.16,5.47,1.49,16.41-8.15,20.36-4.04-12.95-1.97-37.98,3.64-40.68,.63,2.39,1.25,4.69,2.13,8.03,3.34-5.98,6.3-11.29,9.26-16.59,1.31,.33,2.63,.65,3.94,.98-9.66,12.16-5.14,23.29,.01,34.59,.54,1.18-2.12,3.83-4.36,7.57Z"/>
      <path d="M103.56,117.48c1.15,17.17-6.59,44.09-13.84,46.73-2.58-10.7-5.34-21.28-7.45-31.98-.29-1.45,2.68-3.55,5.32-6.79,1.85,7.96,3.18,13.65,4.76,20.42,6.99-8.79,.67-21.55,11.21-28.37Z"/>
      <path d="M120.98,141.13c3.24-1.19,6.55-2.41,9.86-3.63,.45,.79,.9,1.58,1.35,2.36-4.3,5.8-11.49,7.59-19.61,12.66,0-6.42,0-10.94,0-15.46,0-3.5,.02-6.99,.03-10.49,.04-16.51,.64-17.33,18.33-21.65-2.25,2.18-4.2,4.89-6.82,6.42-4.72,2.75-6.2,6.14-3.87,11.61,2.24-.4,4.5-.8,7.67-1.37-.61,7.64-14.33,9.44-6.94,19.55Z"/>
      <path d="M65.99,177.78c1.44-14.47-2.81-28.04,3.37-42.81,5.13,11.38,3.36,39.35-3.37,42.81Z"/>
      <path class="cls-1" d="M39.53,136.64c1.13-3.75,2.22-7.51,3.59-11.16,.04-.11,3.05,.89,4.67,1.37-1.2,3.74-2.41,7.47-3.61,11.21-1.55-.47-3.1-.94-4.65-1.42Z"/>
      <path class="cls-1" d="M39.49,118.5c.84-3.13,1.62-6.28,2.69-9.33,.04-.12,2.73,.68,4.19,1.05-.9,3.13-1.81,6.25-2.71,9.38-1.39-.37-2.78-.73-4.17-1.1Z"/>
      <path class="cls-1" d="M71.42,93.65c3.66,14.46,1.78,26.23-4.45,29.04-4.67-10.53-2.54-26.31,4.45-29.04Z"/>
      <path class="cls-1" d="M92.28,108.41c-4.36-11.94-2.31-26.03,3.97-29.39,4.73,9.03,2.68,26.02-3.97,29.39Z"/>
    </g>
  </g>
</svg>